<svg width="30" height="30" viewBox="0 0 30 30" fill="none" xmlns="http://www.w3.org/2000/svg">
<path d="M22.3125 16.9125C22.2125 16.6875 22.0375 16.5 21.8 16.4C21.6875 16.35 21.5625 16.325 21.4375 16.325H8.54999C8.03749 16.325 7.61249 16.75 7.61249 17.2625C7.61249 17.775 8.03749 18.2 8.54999 18.2H19.175L16.975 20.4C16.6125 20.7625 16.6125 21.3625 16.975 21.725C17.1625 21.9125 17.4 22 17.6375 22C17.875 22 18.1125 21.9125 18.3 21.725L22.1 17.925C22.1875 17.8375 22.25 17.7375 22.3 17.625C22.4 17.4 22.4 17.1375 22.3125 16.9125Z" fill="#BFBFBF"/>
<path d="M21.4375 11.7875H10.8125L13.0125 9.58751C13.375 9.22501 13.375 8.62498 13.0125 8.26248C12.65 7.89998 12.05 7.89998 11.6875 8.26248L7.88749 12.0625C7.79999 12.15 7.73749 12.25 7.68749 12.3625C7.58749 12.5875 7.58749 12.85 7.68749 13.075C7.78749 13.3 7.96249 13.4875 8.19999 13.5875C8.31249 13.6375 8.4375 13.6625 8.5625 13.6625H21.45C21.9625 13.6625 22.3875 13.2375 22.3875 12.725C22.3875 12.2125 21.9625 11.7875 21.4375 11.7875Z" fill="url(#paint0_linear_242_1481)"/>
<defs>
<linearGradient id="paint0_linear_242_1481" x1="7.61249" y1="10.8265" x2="26.9934" y2="15.6155" gradientUnits="userSpaceOnUse">
<stop stop-color="#CC0000"/>
<stop offset="1" stop-color="#FF9D00"/>
</linearGradient>
</defs>
</svg>
